<svg xmlns="http://www.w3.org/2000/svg" viewBox="0 0 1200 675" width="1200" height="675">
  <style>
    text { font-family: Inter, system-ui, -apple-system, sans-serif; }
  </style>

  <rect width="1200" height="675" fill="#ffffff"/>

  <!-- Background pattern (per-article variation) -->
  <rect width="1200" height="675" fill="#f8fafc" opacity="0.4"/>

  <!-- Subtle top accent bar -->
  <rect width="1200" height="4" fill="#2563eb"/>

  <!-- Title -->
  <text x="600" y="55" text-anchor="middle" font-size="26" font-weight="700" fill="#1e293b">Estimated annual value of user data segments (per user)</text>

  <!-- Chart area -->
  
  
  
  
  
  
  

  <!-- Y axis -->
  <line x1="240" y1="85" x2="240" y2="610" stroke="#e2e8f0" stroke-width="1"/>

  <!-- Gridlines -->
  
  
  <line x1="396" y1="85" x2="396" y2="610" stroke="#f1f5f9" stroke-width="1"/>
  
  
  <line x1="552" y1="85" x2="552" y2="610" stroke="#f1f5f9" stroke-width="1"/>
  
  
  <line x1="708" y1="85" x2="708" y2="610" stroke="#f1f5f9" stroke-width="1"/>
  
  
  <line x1="864" y1="85" x2="864" y2="610" stroke="#f1f5f9" stroke-width="1"/>
  
  
  <line x1="1020" y1="85" x2="1020" y2="610" stroke="#f1f5f9" stroke-width="1"/>
  

  
  
  
  

  <!-- Label -->
  <text x="226" y="142" text-anchor="end" font-size="13" font-weight="500" fill="#1e293b">Gender)</text>

  <!-- Bar with rounded right end -->
  <rect x="245" y="93" width="31" height="89" rx="12" fill="#f59e0b" opacity="0.85"/>
  <rect x="245" y="93" width="31" height="89" rx="12" fill="#f59e0b" opacity="0.12"/>

  <!-- Value label -->
  <text x="287" y="142" font-size="13" font-weight="700" fill="#f59e0b">$0.50</text>
  
  
  
  

  <!-- Label -->
  <text x="226" y="247" text-anchor="end" font-size="13" font-weight="500" fill="#1e293b">Location History</text>

  <!-- Bar with rounded right end -->
  <rect x="245" y="198" width="131" height="89" rx="12" fill="#16a34a" opacity="0.85"/>
  <rect x="245" y="198" width="131" height="89" rx="12" fill="#16a34a" opacity="0.12"/>

  <!-- Value label -->
  <text x="387" y="247" font-size="13" font-weight="700" fill="#16a34a">$2.10</text>
  
  
  
  

  <!-- Label -->
  <text x="226" y="352" text-anchor="end" font-size="13" font-weight="500" fill="#1e293b">Financial App Transaction Data</text>

  <!-- Bar with rounded right end -->
  <rect x="245" y="303" width="296" height="89" rx="12" fill="#2563eb" opacity="0.85"/>
  <rect x="245" y="303" width="296" height="89" rx="12" fill="#2563eb" opacity="0.12"/>

  <!-- Value label -->
  <text x="552" y="352" font-size="13" font-weight="700" fill="#2563eb">$4.75</text>
  
  
  
  

  <!-- Label -->
  <text x="226" y="457" text-anchor="end" font-size="13" font-weight="500" fill="#1e293b">Health &amp; Fitness Data</text>

  <!-- Bar with rounded right end -->
  <rect x="245" y="408" width="517" height="89" rx="12" fill="#8b5cf6" opacity="0.85"/>
  <rect x="245" y="408" width="517" height="89" rx="12" fill="#8b5cf6" opacity="0.12"/>

  <!-- Value label -->
  <text x="773" y="457" font-size="13" font-weight="700" fill="#8b5cf6">$8.30</text>
  
  
  
  

  <!-- Label -->
  <text x="226" y="562" text-anchor="end" font-size="13" font-weight="500" fill="#1e293b">Comprehensive Behavioral Profile</text>

  <!-- Bar with rounded right end -->
  <rect x="245" y="513" width="780" height="89" rx="12" fill="#06b6d4" opacity="0.85"/>
  <rect x="245" y="513" width="780" height="89" rx="12" fill="#06b6d4" opacity="0.12"/>

  <!-- Value label -->
  <text x="1036" y="562" font-size="13" font-weight="700" fill="#06b6d4">$12.50</text>
  

  <!-- Source attribution -->
  <text x="1190" y="665" text-anchor="end" font-size="10" fill="#cbd5e1">stillwareltd.com</text>
</svg>