<svg xmlns="http://www.w3.org/2000/svg" viewBox="0 0 1200 502" width="1200" height="502" role="img" aria-label="Budgeting app comparison: price, bank import and where your data lives">
  <style>
    text { font-family: Inter, system-ui, -apple-system, sans-serif; }
  </style>
  <rect width="1200" height="502" fill="#ffffff"/>
  <rect width="1200" height="6" fill="#2563eb"/><rect y="6" width="1200" height="2" fill="#60a5fa" opacity="0.4"/>
  <text x="600" y="52" text-anchor="middle" font-size="26" font-weight="700" fill="#1e293b">2026 Budgeting App Comparison: Price, Bank Import, Data</text>
  <rect x="40" y="80" width="210" height="52" fill="#2563eb"/>
  <text x="54" y="112" font-size="16" font-weight="600" fill="#ffffff">App</text>
  <rect x="250" y="80" width="300" height="52" fill="#2563eb"/>
  <text x="264" y="112" font-size="16" font-weight="600" fill="#ffffff">Price</text>
  <rect x="550" y="80" width="370" height="52" fill="#2563eb"/>
  <text x="564" y="112" font-size="16" font-weight="600" fill="#ffffff">Bank import</text>
  <rect x="920" y="80" width="240" height="52" fill="#2563eb"/>
  <text x="934" y="112" font-size="16" font-weight="600" fill="#ffffff">Where your data lives</text>
  <rect x="40" y="132" width="210" height="64" fill="#f8fafc" stroke="#e2e8f0" stroke-width="0.5"/>
  <text x="54" y="162" font-size="13" font-weight="600" fill="#1e293b">YNAB</text>
  <rect x="250" y="132" width="300" height="64" fill="#f8fafc" stroke="#e2e8f0" stroke-width="0.5"/>
  <text x="264" y="162" font-size="13" font-weight="400" fill="#334155">$109/year or $14.99/month</text>
  <rect x="550" y="132" width="370" height="64" fill="#f8fafc" stroke="#e2e8f0" stroke-width="0.5"/>
  <text x="564" y="162" font-size="13" font-weight="400" fill="#334155">Direct import, select banks</text>
  <rect x="920" y="132" width="240" height="64" fill="#f8fafc" stroke="#e2e8f0" stroke-width="0.5"/>
  <text x="934" y="162" font-size="13" font-weight="400" fill="#334155">YNAB's cloud</text>
  <rect x="40" y="196" width="210" height="64" fill="#ffffff" stroke="#e2e8f0" stroke-width="0.5"/>
  <text x="54" y="226" font-size="13" font-weight="600" fill="#1e293b">EveryDollar Premium</text>
  <rect x="250" y="196" width="300" height="64" fill="#ffffff" stroke="#e2e8f0" stroke-width="0.5"/>
  <text x="264" y="226" font-size="13" font-weight="400" fill="#334155">$79.99/year or $17.99/month</text>
  <rect x="550" y="196" width="370" height="64" fill="#ffffff" stroke="#e2e8f0" stroke-width="0.5"/>
  <text x="564" y="226" font-size="13" font-weight="400" fill="#334155">Bank connect (Premium only)</text>
  <rect x="920" y="196" width="240" height="64" fill="#ffffff" stroke="#e2e8f0" stroke-width="0.5"/>
  <text x="934" y="226" font-size="13" font-weight="400" fill="#334155">Ramsey's cloud</text>
  <rect x="40" y="260" width="210" height="64" fill="#f8fafc" stroke="#e2e8f0" stroke-width="0.5"/>
  <text x="54" y="290" font-size="13" font-weight="600" fill="#1e293b">Goodbudget Premium</text>
  <rect x="250" y="260" width="300" height="64" fill="#f8fafc" stroke="#e2e8f0" stroke-width="0.5"/>
  <text x="264" y="290" font-size="13" font-weight="400" fill="#334155">$80/year or $10/month</text>
  <rect x="550" y="260" width="370" height="64" fill="#f8fafc" stroke="#e2e8f0" stroke-width="0.5"/>
  <text x="564" y="290" font-size="13" font-weight="400" fill="#334155">US banks only (Premium)</text>
  <rect x="920" y="260" width="240" height="64" fill="#f8fafc" stroke="#e2e8f0" stroke-width="0.5"/>
  <text x="934" y="290" font-size="13" font-weight="400" fill="#334155">Goodbudget's cloud</text>
  <rect x="40" y="324" width="210" height="64" fill="#ffffff" stroke="#e2e8f0" stroke-width="0.5"/>
  <text x="54" y="354" font-size="13" font-weight="600" fill="#1e293b">Buckets</text>
  <rect x="250" y="324" width="300" height="64" fill="#ffffff" stroke="#e2e8f0" stroke-width="0.5"/>
  <text x="264" y="354" font-size="13" font-weight="400" fill="#334155">$64 once</text>
  <rect x="550" y="324" width="370" height="64" fill="#ffffff" stroke="#e2e8f0" stroke-width="0.5"/>
  <text x="564" y="354" font-size="13" font-weight="400" fill="#334155">File import, macros, SimpleFIN Bridge</text>
  <rect x="920" y="324" width="240" height="64" fill="#ffffff" stroke="#e2e8f0" stroke-width="0.5"/>
  <text x="934" y="354" font-size="13" font-weight="400" fill="#334155">Your device</text>
  <rect x="40" y="388" width="210" height="64" fill="#f8fafc" stroke="#e2e8f0" stroke-width="0.5"/>
  <text x="54" y="418" font-size="13" font-weight="600" fill="#1e293b">Zeroed</text>
  <rect x="250" y="388" width="300" height="64" fill="#f8fafc" stroke="#e2e8f0" stroke-width="0.5"/>
  <text x="264" y="412" font-size="13" font-weight="400" fill="#334155">$19.99 once, then $39.99 (founder</text>
  <text x="264" y="430" font-size="13" font-weight="400" fill="#334155">price to 14 Feb 2027)</text>
  <rect x="550" y="388" width="370" height="64" fill="#f8fafc" stroke="#e2e8f0" stroke-width="0.5"/>
  <text x="564" y="412" font-size="13" font-weight="400" fill="#334155">None, by design; statement files and receipt</text>
  <text x="564" y="430" font-size="13" font-weight="400" fill="#334155">scan</text>
  <rect x="920" y="388" width="240" height="64" fill="#f8fafc" stroke="#e2e8f0" stroke-width="0.5"/>
  <text x="934" y="418" font-size="13" font-weight="400" fill="#334155">Your device, encrypted</text>
  <text x="40" y="482" font-size="12" fill="#64748b">Prices checked 7 October 2026 on each vendor's own site. US dollars, before tax.</text>
  <text x="1190" y="482" text-anchor="end" font-size="10" fill="#94a3b8">stillwareltd.com</text>
</svg>
