





<svg xmlns="http://www.w3.org/2000/svg" viewBox="0 0 1200 945" width="1200" height="945">
  <style>
    text { font-family: Inter, system-ui, -apple-system, sans-serif; }
  </style>

  <rect width="1200" height="945" fill="#faf5ff"/>

  <!-- Background pattern (per-article variation) -->
  <rect width="1200" height="675" fill="#f3e8ff" opacity="0.4"/>

  <!-- Subtle top accent bar -->
  <rect width="1200" height="4" fill="#0891b2"/>

  <!-- Title -->
  <text x="600" y="50" text-anchor="middle" font-size="26" font-weight="700" fill="#1e293b">Software approach: Cloud-dependent vs. Local-first mindset</text>

  <!-- Column header colors (theme-aware alternation) -->
  
  

  <!-- Table -->
  
  
  

  <!-- Column header -->
  <rect x="100" y="80" width="1000" height="52" fill="#0891b2"/>
  
  <rect x="100" y="80" width="4" height="52" fill="#0891b2"/>
  
  <text x="600" y="112" text-anchor="middle" font-size="16" font-weight="600" fill="#ffffff">Core Function</text>

  <!-- Rows -->
  
  
  <rect x="100" y="148" width="1000" height="52" fill="#f3e8ff" stroke="#e2e8f0" stroke-width="0.5"/>
  <text x="116" y="170" font-size="13" font-weight="600" fill="#1e293b">Core Function</text>
  <text x="116" y="190" font-size="13" fill="#64748b">Multi-track Audio Recording</text>
  
  
  <rect x="100" y="206" width="1000" height="52" fill="#faf5ff" stroke="#e2e8f0" stroke-width="0.5"/>
  <text x="116" y="228" font-size="13" font-weight="600" fill="#1e293b">Project Access</text>
  <text x="116" y="248" font-size="13" fill="#64748b">Anywhere with login</text>
  
  
  <rect x="100" y="264" width="1000" height="52" fill="#f3e8ff" stroke="#e2e8f0" stroke-width="0.5"/>
  <text x="116" y="286" font-size="13" font-weight="600" fill="#1e293b">File Storage</text>
  <text x="116" y="306" font-size="13" fill="#64748b">Company servers</text>
  
  
  <rect x="100" y="322" width="1000" height="52" fill="#faf5ff" stroke="#e2e8f0" stroke-width="0.5"/>
  <text x="116" y="344" font-size="13" font-weight="600" fill="#1e293b">Updates</text>
  <text x="116" y="364" font-size="13" fill="#64748b">Automatic</text>
  
  
  <rect x="100" y="380" width="1000" height="52" fill="#f3e8ff" stroke="#e2e8f0" stroke-width="0.5"/>
  <text x="116" y="402" font-size="13" font-weight="600" fill="#1e293b">often mandatory</text>
  <text x="116" y="422" font-size="13" fill="#64748b">often mandatory</text>
  
  
  <rect x="100" y="438" width="1000" height="52" fill="#faf5ff" stroke="#e2e8f0" stroke-width="0.5"/>
  <text x="116" y="460" font-size="13" font-weight="600" fill="#1e293b">Cost Model</text>
  <text x="116" y="480" font-size="13" fill="#64748b">Monthly/Yearly subscription</text>
  
  
  <rect x="100" y="496" width="1000" height="52" fill="#f3e8ff" stroke="#e2e8f0" stroke-width="0.5"/>
  <text x="116" y="518" font-size="13" font-weight="600" fill="#1e293b">Data Privacy</text>
  <text x="116" y="538" font-size="13" fill="#64748b">Governed by company policy|Core Function:Multi-track Audio Recording</text>
  
  
  <rect x="100" y="554" width="1000" height="52" fill="#faf5ff" stroke="#e2e8f0" stroke-width="0.5"/>
  <text x="116" y="576" font-size="13" font-weight="600" fill="#1e293b">Project Access</text>
  <text x="116" y="596" font-size="13" fill="#64748b">On the computer it&#39;s on</text>
  
  

  <!-- Bottom border -->
  <rect x="100" y="902" width="1000" height="3" fill="#0891b2"/>

  <!-- Source attribution -->
  <text x="1190" y="937" text-anchor="end" font-size="10" fill="#cbd5e1">stillwareltd.com</text>
</svg>