<svg xmlns="http://www.w3.org/2000/svg" viewBox="0 0 1200 675" width="1200" height="675">
  <style>
    text { font-family: Inter, system-ui, -apple-system, sans-serif; }
  </style>

  <rect width="1200" height="675" fill="#fffbeb"/>

  <!-- Background pattern (per-article variation) -->
  <pattern id="dots" width="20" height="20" patternUnits="userSpaceOnUse"><circle cx="10" cy="10" r="1" fill="#2563eb" opacity="0.06"/></pattern><rect width="1200" height="675" fill="url(#dots)"/>

  <!-- Subtle top accent bar -->
  <rect width="1200" height="4" fill="#f59e0b"/>

  <!-- Title -->
  <text x="600" y="55" text-anchor="middle" font-size="28" font-weight="700" fill="#1e293b">Five-year total cost of chore tracking apps</text>

  <!-- Chart area -->
  
  
  
  
  
  
  

  <!-- Y axis -->
  <line x1="240" y1="85" x2="240" y2="610" stroke="#e2e8f0" stroke-width="1"/>

  <!-- Gridlines -->
  
  
  <line x1="396" y1="85" x2="396" y2="610" stroke="#f1f5f9" stroke-width="1"/>
  
  
  <line x1="552" y1="85" x2="552" y2="610" stroke="#f1f5f9" stroke-width="1"/>
  
  
  <line x1="708" y1="85" x2="708" y2="610" stroke="#f1f5f9" stroke-width="1"/>
  
  
  <line x1="864" y1="85" x2="864" y2="610" stroke="#f1f5f9" stroke-width="1"/>
  
  
  <line x1="1020" y1="85" x2="1020" y2="610" stroke="#f1f5f9" stroke-width="1"/>
  

  
  
  
  

  <!-- Label -->
  <text x="226" y="142" text-anchor="end" font-size="14" font-weight="500" fill="#1e293b">BusyKid</text>

  <!-- Bar with rounded right end -->
  <rect x="245" y="93" width="81" height="89" rx="18" fill="#dc2626" opacity="0.85"/>
  <rect x="245" y="93" width="81" height="89" rx="18" fill="#dc2626" opacity="0.12"/>

  <!-- Value label -->
  <text x="337" y="142" font-size="14" font-weight="700" fill="#dc2626">$74.95</text>
  
  
  
  

  <!-- Label -->
  <text x="226" y="247" text-anchor="end" font-size="14" font-weight="500" fill="#1e293b">ChoreMonster</text>

  <!-- Bar with rounded right end -->
  <rect x="245" y="198" width="324" height="89" rx="18" fill="#f59e0b" opacity="0.85"/>
  <rect x="245" y="198" width="324" height="89" rx="18" fill="#f59e0b" opacity="0.12"/>

  <!-- Value label -->
  <text x="580" y="247" font-size="14" font-weight="700" fill="#f59e0b">$299.95</text>
  
  
  
  

  <!-- Label -->
  <text x="226" y="352" text-anchor="end" font-size="14" font-weight="500" fill="#1e293b">Homey</text>

  <!-- Bar with rounded right end -->
  <rect x="245" y="303" width="780" height="89" rx="18" fill="#16a34a" opacity="0.85"/>
  <rect x="245" y="303" width="780" height="89" rx="18" fill="#16a34a" opacity="0.12"/>

  <!-- Value label -->
  <text x="1036" y="352" font-size="14" font-weight="700" fill="#16a34a">$719.95</text>
  
  
  
  

  <!-- Label -->
  <text x="226" y="457" text-anchor="end" font-size="14" font-weight="500" fill="#1e293b">OurHome</text>

  <!-- Bar with rounded right end -->
  <rect x="245" y="408" width="0" height="89" rx="18" fill="#2563eb" opacity="0.85"/>
  <rect x="245" y="408" width="0" height="89" rx="18" fill="#2563eb" opacity="0.12"/>

  <!-- Value label -->
  <text x="256" y="457" font-size="14" font-weight="700" fill="#2563eb">$0</text>
  
  
  
  

  <!-- Label -->
  <text x="226" y="562" text-anchor="end" font-size="14" font-weight="500" fill="#1e293b">Paper Chart</text>

  <!-- Bar with rounded right end -->
  <rect x="245" y="513" width="0" height="89" rx="18" fill="#8b5cf6" opacity="0.85"/>
  <rect x="245" y="513" width="0" height="89" rx="18" fill="#8b5cf6" opacity="0.12"/>

  <!-- Value label -->
  <text x="256" y="562" font-size="14" font-weight="700" fill="#8b5cf6">$0</text>
  

  <!-- Source attribution -->
  <text x="1190" y="665" text-anchor="end" font-size="10" fill="#cbd5e1">stillwareltd.com</text>
</svg>