





<svg xmlns="http://www.w3.org/2000/svg" viewBox="0 0 1200 713" width="1200" height="713">
  <style>
    text { font-family: Inter, system-ui, -apple-system, sans-serif; }
  </style>

  <rect width="1200" height="713" fill="#ffffff"/>

  <!-- Background pattern (per-article variation) -->
  <rect width="1200" height="6" fill="#2563eb"/><rect y="6" width="1200" height="2" fill="#60a5fa" opacity="0.4"/>

  <!-- Subtle top accent bar -->
  <rect width="1200" height="4" fill="#059669"/>

  <!-- Title -->
  <text x="600" y="50" text-anchor="middle" font-size="26" font-weight="700" fill="#1e293b">2026 Budgeting App Comparison: Local Storage &amp; Privacy Focus</text>

  <!-- Column header colors (theme-aware alternation) -->
  
  

  <!-- Table -->
  
  
  

  <!-- Column header -->
  <rect x="100" y="80" width="250" height="52" fill="#059669"/>
  
  <rect x="100" y="80" width="4" height="52" fill="#059669"/>
  
  <text x="225" y="112" text-anchor="middle" font-size="16" font-weight="600" fill="#ffffff">App</text>

  <!-- Rows -->
  
  
  <rect x="100" y="148" width="250" height="52" fill="#f8fafc" stroke="#e2e8f0" stroke-width="0.5"/>
  <text x="116" y="170" font-size="13" font-weight="600" fill="#1e293b">App</text>
  <text x="116" y="190" font-size="13" fill="#64748b">YNAB (You Need A Budget)</text>
  
  
  <rect x="100" y="206" width="250" height="52" fill="#ffffff" stroke="#e2e8f0" stroke-width="0.5"/>
  <text x="116" y="228" font-size="13" font-weight="600" fill="#1e293b">Price Model</text>
  <text x="116" y="248" font-size="13" fill="#64748b">$14.99/month or $99/year</text>
  
  
  <rect x="100" y="264" width="250" height="52" fill="#f8fafc" stroke="#e2e8f0" stroke-width="0.5"/>
  <text x="116" y="286" font-size="13" font-weight="600" fill="#1e293b">Data Location</text>
  <text x="116" y="306" font-size="13" fill="#64748b">Cloud Servers (via Plaid)</text>
  
  
  <rect x="100" y="322" width="250" height="52" fill="#ffffff" stroke="#e2e8f0" stroke-width="0.5"/>
  <text x="116" y="344" font-size="13" font-weight="600" fill="#1e293b">Bank Import</text>
  <text x="116" y="364" font-size="13" fill="#64748b">Automatic via Plaid API</text>
  
  
  <rect x="100" y="380" width="250" height="52" fill="#f8fafc" stroke="#e2e8f0" stroke-width="0.5"/>
  <text x="116" y="402" font-size="13" font-weight="600" fill="#1e293b">Offline Functionality</text>
  <text x="116" y="422" font-size="13" fill="#64748b">Limited (requires sync)</text>
  
  
  <rect x="100" y="438" width="250" height="52" fill="#ffffff" stroke="#e2e8f0" stroke-width="0.5"/>
  <text x="116" y="460" font-size="13" font-weight="600" fill="#1e293b">Encryption</text>
  <text x="116" y="480" font-size="13" fill="#64748b">In transit &amp; at rest (their servers)</text>
  
  
  <rect x="100" y="496" width="250" height="52" fill="#f8fafc" stroke="#e2e8f0" stroke-width="0.5"/>
  <text x="116" y="518" font-size="13" font-weight="600" fill="#1e293b">Platforms</text>
  <text x="116" y="538" font-size="13" fill="#64748b">iOS</text>
  
  
  <rect x="100" y="554" width="250" height="52" fill="#ffffff" stroke="#e2e8f0" stroke-width="0.5"/>
  <text x="116" y="576" font-size="13" font-weight="600" fill="#1e293b">Android</text>
  <text x="116" y="596" font-size="13" fill="#64748b">Android</text>
  
  
  
  

  <!-- Column header -->
  <rect x="350" y="80" width="250" height="52" fill="#60a5fa"/>
  
  <text x="475" y="112" text-anchor="middle" font-size="16" font-weight="600" fill="#ffffff">App</text>

  <!-- Rows -->
  
  
  <rect x="350" y="148" width="250" height="52" fill="#f8fafc" stroke="#e2e8f0" stroke-width="0.5"/>
  <text x="366" y="170" font-size="13" font-weight="600" fill="#1e293b">App</text>
  <text x="366" y="190" font-size="13" fill="#64748b">Actual Budget</text>
  
  
  <rect x="350" y="206" width="250" height="52" fill="#ffffff" stroke="#e2e8f0" stroke-width="0.5"/>
  <text x="366" y="228" font-size="13" font-weight="600" fill="#1e293b">Price Model</text>
  <text x="366" y="248" font-size="13" fill="#64748b">Free (self-host) or $4/month (hosted)</text>
  
  
  <rect x="350" y="264" width="250" height="52" fill="#f8fafc" stroke="#e2e8f0" stroke-width="0.5"/>
  <text x="366" y="286" font-size="13" font-weight="600" fill="#1e293b">Data Location</text>
  <text x="366" y="306" font-size="13" fill="#64748b">Your device or their server</text>
  
  
  <rect x="350" y="322" width="250" height="52" fill="#ffffff" stroke="#e2e8f0" stroke-width="0.5"/>
  <text x="366" y="344" font-size="13" font-weight="600" fill="#1e293b">Bank Import</text>
  <text x="366" y="364" font-size="13" fill="#64748b">Manual file import</text>
  
  
  <rect x="350" y="380" width="250" height="52" fill="#f8fafc" stroke="#e2e8f0" stroke-width="0.5"/>
  <text x="366" y="402" font-size="13" font-weight="600" fill="#1e293b">Offline Functionality</text>
  <text x="366" y="422" font-size="13" fill="#64748b">Full (self-hosted version)</text>
  
  
  <rect x="350" y="438" width="250" height="52" fill="#ffffff" stroke="#e2e8f0" stroke-width="0.5"/>
  <text x="366" y="460" font-size="13" font-weight="600" fill="#1e293b">Encryption</text>
  <text x="366" y="480" font-size="13" fill="#64748b">Local database encryption</text>
  
  
  <rect x="350" y="496" width="250" height="52" fill="#f8fafc" stroke="#e2e8f0" stroke-width="0.5"/>
  <text x="366" y="518" font-size="13" font-weight="600" fill="#1e293b">Platforms</text>
  <text x="366" y="538" font-size="13" fill="#64748b">Web</text>
  
  
  <rect x="350" y="554" width="250" height="52" fill="#ffffff" stroke="#e2e8f0" stroke-width="0.5"/>
  <text x="366" y="576" font-size="13" font-weight="600" fill="#1e293b">Desktop (self-hosted)</text>
  <text x="366" y="596" font-size="13" fill="#64748b">Desktop (self-hosted)</text>
  
  
  
  

  <!-- Column header -->
  <rect x="600" y="80" width="250" height="52" fill="#059669"/>
  
  <text x="725" y="112" text-anchor="middle" font-size="16" font-weight="600" fill="#ffffff">App</text>

  <!-- Rows -->
  
  
  <rect x="600" y="148" width="250" height="52" fill="#f8fafc" stroke="#e2e8f0" stroke-width="0.5"/>
  <text x="616" y="170" font-size="13" font-weight="600" fill="#1e293b">App</text>
  <text x="616" y="190" font-size="13" fill="#64748b">Buckets</text>
  
  
  <rect x="600" y="206" width="250" height="52" fill="#ffffff" stroke="#e2e8f0" stroke-width="0.5"/>
  <text x="616" y="228" font-size="13" font-weight="600" fill="#1e293b">Price Model</text>
  <text x="616" y="248" font-size="13" fill="#64748b">One-time purchase ($49+)</text>
  
  
  <rect x="600" y="264" width="250" height="52" fill="#f8fafc" stroke="#e2e8f0" stroke-width="0.5"/>
  <text x="616" y="286" font-size="13" font-weight="600" fill="#1e293b">Data Location</text>
  <text x="616" y="306" font-size="13" fill="#64748b">Your device</text>
  
  
  <rect x="600" y="322" width="250" height="52" fill="#ffffff" stroke="#e2e8f0" stroke-width="0.5"/>
  <text x="616" y="344" font-size="13" font-weight="600" fill="#1e293b">Bank Import</text>
  <text x="616" y="364" font-size="13" fill="#64748b">Manual file import</text>
  
  
  <rect x="600" y="380" width="250" height="52" fill="#f8fafc" stroke="#e2e8f0" stroke-width="0.5"/>
  <text x="616" y="402" font-size="13" font-weight="600" fill="#1e293b">Offline Functionality</text>
  <text x="616" y="422" font-size="13" fill="#64748b">Full</text>
  
  
  <rect x="600" y="438" width="250" height="52" fill="#ffffff" stroke="#e2e8f0" stroke-width="0.5"/>
  <text x="616" y="460" font-size="13" font-weight="600" fill="#1e293b">Encryption</text>
  <text x="616" y="480" font-size="13" fill="#64748b">Local database encryption</text>
  
  
  <rect x="600" y="496" width="250" height="52" fill="#f8fafc" stroke="#e2e8f0" stroke-width="0.5"/>
  <text x="616" y="518" font-size="13" font-weight="600" fill="#1e293b">Platforms</text>
  <text x="616" y="538" font-size="13" fill="#64748b">Windows</text>
  
  
  <rect x="600" y="554" width="250" height="52" fill="#ffffff" stroke="#e2e8f0" stroke-width="0.5"/>
  <text x="616" y="576" font-size="13" font-weight="600" fill="#1e293b">Mac</text>
  <text x="616" y="596" font-size="13" fill="#64748b">Mac</text>
  
  
  
  

  <!-- Column header -->
  <rect x="850" y="80" width="250" height="52" fill="#60a5fa"/>
  
  <text x="975" y="112" text-anchor="middle" font-size="16" font-weight="600" fill="#ffffff">App</text>

  <!-- Rows -->
  
  
  <rect x="850" y="148" width="250" height="52" fill="#f8fafc" stroke="#e2e8f0" stroke-width="0.5"/>
  <text x="866" y="170" font-size="13" font-weight="600" fill="#1e293b">App</text>
  <text x="866" y="190" font-size="13" fill="#64748b">Zeroed</text>
  
  
  <rect x="850" y="206" width="250" height="52" fill="#ffffff" stroke="#e2e8f0" stroke-width="0.5"/>
  <text x="866" y="228" font-size="13" font-weight="600" fill="#1e293b">Price Model</text>
  <text x="866" y="248" font-size="13" fill="#64748b">One-time purchase ($39.99)</text>
  
  
  <rect x="850" y="264" width="250" height="52" fill="#f8fafc" stroke="#e2e8f0" stroke-width="0.5"/>
  <text x="866" y="286" font-size="13" font-weight="600" fill="#1e293b">Data Location</text>
  <text x="866" y="306" font-size="13" fill="#64748b">Your device</text>
  
  
  <rect x="850" y="322" width="250" height="52" fill="#ffffff" stroke="#e2e8f0" stroke-width="0.5"/>
  <text x="866" y="344" font-size="13" font-weight="600" fill="#1e293b">Bank Import</text>
  <text x="866" y="364" font-size="13" fill="#64748b">Manual file import + on-device OCR</text>
  
  
  <rect x="850" y="380" width="250" height="52" fill="#f8fafc" stroke="#e2e8f0" stroke-width="0.5"/>
  <text x="866" y="402" font-size="13" font-weight="600" fill="#1e293b">Offline Functionality</text>
  <text x="866" y="422" font-size="13" fill="#64748b">Full</text>
  
  
  <rect x="850" y="438" width="250" height="52" fill="#ffffff" stroke="#e2e8f0" stroke-width="0.5"/>
  <text x="866" y="460" font-size="13" font-weight="600" fill="#1e293b">Encryption</text>
  <text x="866" y="480" font-size="13" fill="#64748b">AES-256 on device</text>
  
  
  <rect x="850" y="496" width="250" height="52" fill="#f8fafc" stroke="#e2e8f0" stroke-width="0.5"/>
  <text x="866" y="518" font-size="13" font-weight="600" fill="#1e293b">syncs via your Google Drive</text>
  <text x="866" y="538" font-size="13" fill="#64748b">syncs via your Google Drive</text>
  
  
  <rect x="850" y="554" width="250" height="52" fill="#ffffff" stroke="#e2e8f0" stroke-width="0.5"/>
  <text x="866" y="576" font-size="13" font-weight="600" fill="#1e293b">Platforms</text>
  <text x="866" y="596" font-size="13" fill="#64748b">iOS</text>
  
  

  <!-- Bottom border -->
  <rect x="100" y="670" width="1000" height="3" fill="#059669"/>

  <!-- Source attribution -->
  <text x="1190" y="705" text-anchor="end" font-size="10" fill="#cbd5e1">stillwareltd.com</text>
</svg>