<svg xmlns="http://www.w3.org/2000/svg" viewBox="0 0 1200 675" width="1200" height="675">
  <style>
    text { font-family: Inter, system-ui, -apple-system, sans-serif; }
  </style>

  <rect width="1200" height="675" fill="#f0fdf4"/>

  <!-- Background pattern (per-article variation) -->
  

  <!-- Subtle top accent bar -->
  <rect width="1200" height="4" fill="#2563eb"/>

  <!-- Title -->
  <text x="600" y="50" text-anchor="middle" font-size="28" font-weight="700" fill="#1e293b">Data Flow: Cloud-Based vs. Local-First Apps</text>

  <!-- Boxes arranged in a grid (2 rows, up to 4 columns) -->
  
  
  
  
  
  
  

  <!-- Row group labels if 2 rows -->
  
  
  
  
  <text x="61" y="165" text-anchor="end" font-size="15" font-weight="700" fill="#dc2626" transform="rotate(-90 61 160)">Your Device</text>
  
  
  <text x="61" y="355" text-anchor="end" font-size="15" font-weight="700" fill="#16a34a" transform="rotate(-90 61 350)">Your Device</text>
  
  

  <!-- Box accent colors: use theme accent for row 1, positive for row 2 -->
  

  
  
  
  
  
  

  <rect x="75" y="90" width="240" height="140" rx="14" fill="#ecfdf5" stroke="#e2e8f0" stroke-width="1.5"/>
  <rect x="75" y="90" width="240" height="4" rx="2" fill="#2563eb"/>
  <text x="195" y="126" text-anchor="middle" font-size="16" font-weight="600" fill="#1e293b">Logs health data</text>

  <foreignObject x="89" y="134" width="212" height="86">
    <p xmlns="http://www.w3.org/1999/xhtml" style="font-family:Inter,system-ui,sans-serif;font-size:12px;color:#64748b;margin:0;line-height:1.35;text-align:center;"></p>
  </foreignObject>
  
  
  
  
  
  

  <rect x="345" y="90" width="240" height="140" rx="14" fill="#ecfdf5" stroke="#e2e8f0" stroke-width="1.5"/>
  <rect x="345" y="90" width="240" height="4" rx="2" fill="#2563eb"/>
  <text x="465" y="126" text-anchor="middle" font-size="16" font-weight="600" fill="#1e293b">Company Server</text>

  <foreignObject x="359" y="134" width="212" height="86">
    <p xmlns="http://www.w3.org/1999/xhtml" style="font-family:Inter,system-ui,sans-serif;font-size:12px;color:#64748b;margin:0;line-height:1.35;text-align:center;">Stores &amp; analyzes data</p>
  </foreignObject>
  
  
  
  
  
  

  <rect x="615" y="90" width="240" height="140" rx="14" fill="#ecfdf5" stroke="#e2e8f0" stroke-width="1.5"/>
  <rect x="615" y="90" width="240" height="4" rx="2" fill="#2563eb"/>
  <text x="735" y="126" text-anchor="middle" font-size="16" font-weight="600" fill="#1e293b">Third Parties</text>

  <foreignObject x="629" y="134" width="212" height="86">
    <p xmlns="http://www.w3.org/1999/xhtml" style="font-family:Inter,system-ui,sans-serif;font-size:12px;color:#64748b;margin:0;line-height:1.35;text-align:center;">May receive aggregated insights</p>
  </foreignObject>
  
  
  
  
  
  

  <rect x="885" y="90" width="240" height="140" rx="14" fill="#ecfdf5" stroke="#e2e8f0" stroke-width="1.5"/>
  <rect x="885" y="90" width="240" height="4" rx="2" fill="#2563eb"/>
  <text x="1005" y="126" text-anchor="middle" font-size="16" font-weight="600" fill="#1e293b">You</text>

  <foreignObject x="899" y="134" width="212" height="86">
    <p xmlns="http://www.w3.org/1999/xhtml" style="font-family:Inter,system-ui,sans-serif;font-size:12px;color:#64748b;margin:0;line-height:1.35;text-align:center;">Receive targeted ads</p>
  </foreignObject>
  
  
  
  
  
  

  <rect x="75" y="280" width="240" height="140" rx="14" fill="#ecfdf5" stroke="#e2e8f0" stroke-width="1.5"/>
  <rect x="75" y="280" width="240" height="4" rx="2" fill="#16a34a"/>
  <text x="195" y="316" text-anchor="middle" font-size="16" font-weight="600" fill="#1e293b">Local Storage</text>

  <foreignObject x="89" y="324" width="212" height="86">
    <p xmlns="http://www.w3.org/1999/xhtml" style="font-family:Inter,system-ui,sans-serif;font-size:12px;color:#64748b;margin:0;line-height:1.35;text-align:center;">Encrypted database</p>
  </foreignObject>
  
  
  
  
  
  

  <rect x="345" y="280" width="240" height="140" rx="14" fill="#ecfdf5" stroke="#e2e8f0" stroke-width="1.5"/>
  <rect x="345" y="280" width="240" height="4" rx="2" fill="#16a34a"/>
  <text x="465" y="316" text-anchor="middle" font-size="16" font-weight="600" fill="#1e293b">Your Family</text>

  <foreignObject x="359" y="324" width="212" height="86">
    <p xmlns="http://www.w3.org/1999/xhtml" style="font-family:Inter,system-ui,sans-serif;font-size:12px;color:#64748b;margin:0;line-height:1.35;text-align:center;">Can view via simple link (optional)</p>
  </foreignObject>
  
  
  
  
  
  

  <rect x="615" y="280" width="240" height="140" rx="14" fill="#ecfdf5" stroke="#e2e8f0" stroke-width="1.5"/>
  <rect x="615" y="280" width="240" height="4" rx="2" fill="#16a34a"/>
  <text x="735" y="316" text-anchor="middle" font-size="16" font-weight="600" fill="#1e293b">No Server</text>

  <foreignObject x="629" y="324" width="212" height="86">
    <p xmlns="http://www.w3.org/1999/xhtml" style="font-family:Inter,system-ui,sans-serif;font-size:12px;color:#64748b;margin:0;line-height:1.35;text-align:center;">Zero external data transfer</p>
  </foreignObject>
  

  <!-- Connections (dashed lines between box centers) -->
  
  
  
  
  
  
  
  
  
  
  
  <line x1="195" y1="230" x2="465" y2="90" stroke="#64748b" stroke-width="1.5" stroke-dasharray="6,3" opacity="0.5"/>
  <!-- Arrow head -->
  <polygon points="461,88 465,90 469,88" fill="#64748b" opacity="0.5"/>
  
  
  
  
  
  
  
  
  
  
  
  <line x1="465" y1="230" x2="735" y2="90" stroke="#64748b" stroke-width="1.5" stroke-dasharray="6,3" opacity="0.5"/>
  <!-- Arrow head -->
  <polygon points="731,88 735,90 739,88" fill="#64748b" opacity="0.5"/>
  
  
  
  
  
  
  
  
  
  
  
  <line x1="735" y1="230" x2="1005" y2="90" stroke="#64748b" stroke-width="1.5" stroke-dasharray="6,3" opacity="0.5"/>
  <!-- Arrow head -->
  <polygon points="1001,88 1005,90 1009,88" fill="#64748b" opacity="0.5"/>
  
  
  
  
  
  
  
  
  
  
  
  <line x1="195" y1="420" x2="465" y2="280" stroke="#64748b" stroke-width="1.5" stroke-dasharray="6,3" opacity="0.5"/>
  <!-- Arrow head -->
  <polygon points="461,278 465,280 469,278" fill="#64748b" opacity="0.5"/>
  
  
  
  
  
  
  
  
  
  
  
  <line x1="465" y1="420" x2="735" y2="280" stroke="#64748b" stroke-width="1.5" stroke-dasharray="6,3" opacity="0.5"/>
  <!-- Arrow head -->
  <polygon points="731,278 735,280 739,278" fill="#64748b" opacity="0.5"/>
  

  <!-- Source attribution -->
  <text x="1190" y="665" text-anchor="end" font-size="10" fill="#cbd5e1">stillwareltd.com</text>
</svg>