<svg xmlns="http://www.w3.org/2000/svg" viewBox="0 0 1200 675" width="1200" height="675">
  <style>
    text { font-family: Inter, system-ui, -apple-system, sans-serif; }
  </style>

  <rect width="1200" height="675" fill="#fffbeb"/>

  <!-- Background pattern (per-article variation) -->
  <rect width="1200" height="6" fill="#059669"/><rect y="6" width="1200" height="2" fill="#34d399" opacity="0.4"/>

  <!-- Subtle top accent bar -->
  <rect width="1200" height="4" fill="#e11d48"/>

  <!-- Title -->
  <text x="600" y="50" text-anchor="middle" font-size="28" font-weight="700" fill="#1e293b">A one-week pixel art progress journey</text>

  
  
  
  

  <!-- Dot accent colors (theme-aware) -->
  

  <!-- Horizontal timeline line -->
  <line x1="95" y1="330" x2="1105" y2="330" stroke="#e2e8f0" stroke-width="3" stroke-linecap="round"/>
  <!-- Colored overlay on the line -->
  <line x1="95" y1="330" x2="1105" y2="330" stroke="#e11d48" stroke-width="3" stroke-linecap="round" opacity="0.25"/>

  
  
  
  

  <!-- Dot -->
  <circle cx="110" cy="330" r="10" fill="#fffbeb" stroke="#e11d48" stroke-width="3"/>
  <circle cx="110" cy="330" r="4" fill="#e11d48"/>

  <!-- Vertical connector -->
  
  <line x1="110" y1="320" x2="110" y2="280" stroke="#e2e8f0" stroke-width="1.5"/>
  

  <!-- Event card -->
  
  
  

  <rect x="30" y="120" width="160" height="155" rx="18" fill="#fef3c7" stroke="#e2e8f0" stroke-width="1"/>
  <rect x="30" y="120" width="160" height="4" rx="2" fill="#e11d48"/>
  <text x="110" y="148" text-anchor="middle" font-size="12" font-weight="700" fill="#e11d48">Day 1</text>
  <text x="110" y="168" text-anchor="middle" font-size="14" font-weight="600" fill="#1e293b">Heart Sprite</text>

  <foreignObject x="40" y="176" width="140" height="85">
    <p xmlns="http://www.w3.org/1999/xhtml" style="font-family:Inter,system-ui,sans-serif;font-size:11px;color:#64748b;margin:0;line-height:1.35;text-align:center;">Master basic shape and fill</p>
  </foreignObject>
  
  
  
  

  <!-- Dot -->
  <circle cx="273" cy="330" r="10" fill="#fffbeb" stroke="#34d399" stroke-width="3"/>
  <circle cx="273" cy="330" r="4" fill="#34d399"/>

  <!-- Vertical connector -->
  
  <line x1="273" y1="340" x2="273" y2="380" stroke="#e2e8f0" stroke-width="1.5"/>
  

  <!-- Event card -->
  
  
  

  <rect x="193" y="385" width="160" height="155" rx="18" fill="#fef3c7" stroke="#e2e8f0" stroke-width="1"/>
  <rect x="193" y="385" width="160" height="4" rx="2" fill="#34d399"/>
  <text x="273" y="413" text-anchor="middle" font-size="12" font-weight="700" fill="#34d399">Day 2</text>
  <text x="273" y="433" text-anchor="middle" font-size="14" font-weight="600" fill="#1e293b">Coin Sprite</text>

  <foreignObject x="203" y="441" width="140" height="85">
    <p xmlns="http://www.w3.org/1999/xhtml" style="font-family:Inter,system-ui,sans-serif;font-size:11px;color:#64748b;margin:0;line-height:1.35;text-align:center;">Practice circles and metallic shine</p>
  </foreignObject>
  
  
  
  

  <!-- Dot -->
  <circle cx="436" cy="330" r="10" fill="#fffbeb" stroke="#0891b2" stroke-width="3"/>
  <circle cx="436" cy="330" r="4" fill="#0891b2"/>

  <!-- Vertical connector -->
  
  <line x1="436" y1="320" x2="436" y2="280" stroke="#e2e8f0" stroke-width="1.5"/>
  

  <!-- Event card -->
  
  
  

  <rect x="356" y="120" width="160" height="155" rx="18" fill="#fef3c7" stroke="#e2e8f0" stroke-width="1"/>
  <rect x="356" y="120" width="160" height="4" rx="2" fill="#0891b2"/>
  <text x="436" y="148" text-anchor="middle" font-size="12" font-weight="700" fill="#0891b2">Day 3</text>
  <text x="436" y="168" text-anchor="middle" font-size="14" font-weight="600" fill="#1e293b">Potion Sprite</text>

  <foreignObject x="366" y="176" width="140" height="85">
    <p xmlns="http://www.w3.org/1999/xhtml" style="font-family:Inter,system-ui,sans-serif;font-size:11px;color:#64748b;margin:0;line-height:1.35;text-align:center;">Learn bottles and liquid effects</p>
  </foreignObject>
  
  
  
  

  <!-- Dot -->
  <circle cx="600" cy="330" r="10" fill="#fffbeb" stroke="#dc2626" stroke-width="3"/>
  <circle cx="600" cy="330" r="4" fill="#dc2626"/>

  <!-- Vertical connector -->
  
  <line x1="600" y1="340" x2="600" y2="380" stroke="#e2e8f0" stroke-width="1.5"/>
  

  <!-- Event card -->
  
  
  

  <rect x="520" y="385" width="160" height="155" rx="18" fill="#fef3c7" stroke="#e2e8f0" stroke-width="1"/>
  <rect x="520" y="385" width="160" height="4" rx="2" fill="#dc2626"/>
  <text x="600" y="413" text-anchor="middle" font-size="12" font-weight="700" fill="#dc2626">Day 4</text>
  <text x="600" y="433" text-anchor="middle" font-size="14" font-weight="600" fill="#1e293b">Slime Sprite</text>

  <foreignObject x="530" y="441" width="140" height="85">
    <p xmlns="http://www.w3.org/1999/xhtml" style="font-family:Inter,system-ui,sans-serif;font-size:11px;color:#64748b;margin:0;line-height:1.35;text-align:center;">Create a character with simple animation</p>
  </foreignObject>
  
  
  
  

  <!-- Dot -->
  <circle cx="763" cy="330" r="10" fill="#fffbeb" stroke="#16a34a" stroke-width="3"/>
  <circle cx="763" cy="330" r="4" fill="#16a34a"/>

  <!-- Vertical connector -->
  
  <line x1="763" y1="320" x2="763" y2="280" stroke="#e2e8f0" stroke-width="1.5"/>
  

  <!-- Event card -->
  
  
  

  <rect x="683" y="120" width="160" height="155" rx="18" fill="#fef3c7" stroke="#e2e8f0" stroke-width="1"/>
  <rect x="683" y="120" width="160" height="4" rx="2" fill="#16a34a"/>
  <text x="763" y="148" text-anchor="middle" font-size="12" font-weight="700" fill="#16a34a">Day 5</text>
  <text x="763" y="168" text-anchor="middle" font-size="14" font-weight="600" fill="#1e293b">Sword Sprite</text>

  <foreignObject x="693" y="176" width="140" height="85">
    <p xmlns="http://www.w3.org/1999/xhtml" style="font-family:Inter,system-ui,sans-serif;font-size:11px;color:#64748b;margin:0;line-height:1.35;text-align:center;">Tackle straight lines and sharp details</p>
  </foreignObject>
  
  
  
  

  <!-- Dot -->
  <circle cx="926" cy="330" r="10" fill="#fffbeb" stroke="#f59e0b" stroke-width="3"/>
  <circle cx="926" cy="330" r="4" fill="#f59e0b"/>

  <!-- Vertical connector -->
  
  <line x1="926" y1="340" x2="926" y2="380" stroke="#e2e8f0" stroke-width="1.5"/>
  

  <!-- Event card -->
  
  
  

  <rect x="846" y="385" width="160" height="155" rx="18" fill="#fef3c7" stroke="#e2e8f0" stroke-width="1"/>
  <rect x="846" y="385" width="160" height="4" rx="2" fill="#f59e0b"/>
  <text x="926" y="413" text-anchor="middle" font-size="12" font-weight="700" fill="#f59e0b">Day 6</text>
  <text x="926" y="433" text-anchor="middle" font-size="14" font-weight="600" fill="#1e293b">Tree Sprite</text>

  <foreignObject x="856" y="441" width="140" height="85">
    <p xmlns="http://www.w3.org/1999/xhtml" style="font-family:Inter,system-ui,sans-serif;font-size:11px;color:#64748b;margin:0;line-height:1.35;text-align:center;">Work with organic</p>
  </foreignObject>
  
  
  
  

  <!-- Dot -->
  <circle cx="1090" cy="330" r="10" fill="#fffbeb" stroke="#ec4899" stroke-width="3"/>
  <circle cx="1090" cy="330" r="4" fill="#ec4899"/>

  <!-- Vertical connector -->
  
  <line x1="1090" y1="320" x2="1090" y2="280" stroke="#e2e8f0" stroke-width="1.5"/>
  

  <!-- Event card -->
  
  
  

  <rect x="1010" y="120" width="160" height="155" rx="18" fill="#fef3c7" stroke="#e2e8f0" stroke-width="1"/>
  <rect x="1010" y="120" width="160" height="4" rx="2" fill="#ec4899"/>
  <text x="1090" y="148" text-anchor="middle" font-size="12" font-weight="700" fill="#ec4899">Day 7</text>
  <text x="1090" y="168" text-anchor="middle" font-size="14" font-weight="600" fill="#1e293b">Sprite Sheet</text>

  <foreignObject x="1020" y="176" width="140" height="85">
    <p xmlns="http://www.w3.org/1999/xhtml" style="font-family:Inter,system-ui,sans-serif;font-size:11px;color:#64748b;margin:0;line-height:1.35;text-align:center;">Combine all sprites into one usable image file</p>
  </foreignObject>
  

  <!-- Source attribution -->
  <text x="1190" y="665" text-anchor="end" font-size="10" fill="#cbd5e1">stillwareltd.com</text>
</svg>