<svg xmlns="http://www.w3.org/2000/svg" viewBox="0 0 1200 675" width="1200" height="675">
  <style>
    text { font-family: Inter, system-ui, -apple-system, sans-serif; }
  </style>

  <rect width="1200" height="675" fill="#ffffff"/>

  <!-- Background pattern (per-article variation) -->
  <rect width="1200" height="675" fill="#f8fafc" opacity="0.4"/>

  <!-- Subtle top accent bar -->
  <rect width="1200" height="4" fill="#059669"/>

  <!-- Title -->
  <text x="600" y="55" text-anchor="middle" font-size="26" font-weight="700" fill="#1e293b">Five-year total cost of ownership for budgeting software models.</text>

  <!-- Chart area -->
  
  
  
  
  
  
  

  <!-- Y axis -->
  <line x1="240" y1="85" x2="240" y2="610" stroke="#e2e8f0" stroke-width="1"/>

  <!-- Gridlines -->
  
  
  <line x1="396" y1="85" x2="396" y2="610" stroke="#f1f5f9" stroke-width="1"/>
  
  
  <line x1="552" y1="85" x2="552" y2="610" stroke="#f1f5f9" stroke-width="1"/>
  
  
  <line x1="708" y1="85" x2="708" y2="610" stroke="#f1f5f9" stroke-width="1"/>
  
  
  <line x1="864" y1="85" x2="864" y2="610" stroke="#f1f5f9" stroke-width="1"/>
  
  
  <line x1="1020" y1="85" x2="1020" y2="610" stroke="#f1f5f9" stroke-width="1"/>
  

  
  
  
  

  <!-- Label -->
  <text x="226" y="177" text-anchor="end" font-size="13" font-weight="500" fill="#1e293b">&#34;Free&#34; App</text>

  <!-- Bar with rounded right end -->
  <rect x="245" y="93" width="0" height="159" rx="12" fill="#7c3aed" opacity="0.85"/>
  <rect x="245" y="93" width="0" height="159" rx="12" fill="#7c3aed" opacity="0.12"/>

  <!-- Value label -->
  <text x="256" y="177" font-size="13" font-weight="700" fill="#7c3aed">$0 + Data</text>
  
  
  
  

  <!-- Label -->
  <text x="226" y="352" text-anchor="end" font-size="13" font-weight="500" fill="#1e293b">Subscription App</text>

  <!-- Bar with rounded right end -->
  <rect x="245" y="268" width="780" height="159" rx="12" fill="#a78bfa" opacity="0.85"/>
  <rect x="245" y="268" width="780" height="159" rx="12" fill="#a78bfa" opacity="0.12"/>

  <!-- Value label -->
  <text x="1036" y="352" font-size="13" font-weight="700" fill="#a78bfa">$900</text>
  
  
  
  

  <!-- Label -->
  <text x="226" y="527" text-anchor="end" font-size="13" font-weight="500" fill="#1e293b">One-Time Purchase</text>

  <!-- Bar with rounded right end -->
  <rect x="245" y="443" width="34" height="159" rx="12" fill="#6d28d9" opacity="0.85"/>
  <rect x="245" y="443" width="34" height="159" rx="12" fill="#6d28d9" opacity="0.12"/>

  <!-- Value label -->
  <text x="290" y="527" font-size="13" font-weight="700" fill="#6d28d9">$39.99</text>
  

  <!-- Source attribution -->
  <text x="1190" y="665" text-anchor="end" font-size="10" fill="#cbd5e1">stillwareltd.com</text>
</svg>