





<svg xmlns="http://www.w3.org/2000/svg" viewBox="0 0 1200 655" width="1200" height="655">
  <style>
    text { font-family: Inter, system-ui, -apple-system, sans-serif; }
  </style>

  <rect width="1200" height="655" fill="#ffffff"/>

  <!-- Background pattern (per-article variation) -->
  <rect width="1200" height="6" fill="#2563eb"/><rect y="6" width="1200" height="2" fill="#60a5fa" opacity="0.4"/>

  <!-- Subtle top accent bar -->
  <rect width="1200" height="4" fill="#059669"/>

  <!-- Title -->
  <text x="600" y="50" text-anchor="middle" font-size="26" font-weight="700" fill="#1e293b">2026 Budgeting App Feature Comparison</text>

  <!-- Column header colors (theme-aware alternation) -->
  
  

  <!-- Table -->
  
  
  

  <!-- Column header -->
  <rect x="100" y="80" width="200" height="52" fill="#059669"/>
  
  <rect x="100" y="80" width="4" height="52" fill="#059669"/>
  
  <text x="200" y="112" text-anchor="middle" font-size="16" font-weight="600" fill="#ffffff">Feature</text>

  <!-- Rows -->
  
  
  <rect x="100" y="148" width="200" height="52" fill="#f8fafc" stroke="#e2e8f0" stroke-width="0.5"/>
  <text x="116" y="170" font-size="13" font-weight="600" fill="#1e293b">Feature</text>
  <text x="116" y="190" font-size="13" fill="#64748b">Price Model</text>
  
  
  <rect x="100" y="206" width="200" height="52" fill="#ffffff" stroke="#e2e8f0" stroke-width="0.5"/>
  <text x="116" y="228" font-size="13" font-weight="600" fill="#1e293b">Data Storage</text>
  <text x="116" y="248" font-size="13" fill="#64748b">Data Storage</text>
  
  
  <rect x="100" y="264" width="200" height="52" fill="#f8fafc" stroke="#e2e8f0" stroke-width="0.5"/>
  <text x="116" y="286" font-size="13" font-weight="600" fill="#1e293b">Bank Sync</text>
  <text x="116" y="306" font-size="13" fill="#64748b">Bank Sync</text>
  
  
  <rect x="100" y="322" width="200" height="52" fill="#ffffff" stroke="#e2e8f0" stroke-width="0.5"/>
  <text x="116" y="344" font-size="13" font-weight="600" fill="#1e293b">Encryption</text>
  <text x="116" y="364" font-size="13" fill="#64748b">Encryption</text>
  
  
  <rect x="100" y="380" width="200" height="52" fill="#f8fafc" stroke="#e2e8f0" stroke-width="0.5"/>
  <text x="116" y="402" font-size="13" font-weight="600" fill="#1e293b">Offline Use</text>
  <text x="116" y="422" font-size="13" fill="#64748b">Offline Use</text>
  
  
  <rect x="100" y="438" width="200" height="52" fill="#ffffff" stroke="#e2e8f0" stroke-width="0.5"/>
  <text x="116" y="460" font-size="13" font-weight="600" fill="#1e293b">Envelope Budgeting</text>
  <text x="116" y="480" font-size="13" fill="#64748b">Envelope Budgeting</text>
  
  
  <rect x="100" y="496" width="200" height="52" fill="#f8fafc" stroke="#e2e8f0" stroke-width="0.5"/>
  <text x="116" y="518" font-size="13" font-weight="600" fill="#1e293b">Receipt Capture</text>
  <text x="116" y="538" font-size="13" fill="#64748b">Receipt Capture</text>
  
  
  <rect x="100" y="554" width="200" height="52" fill="#ffffff" stroke="#e2e8f0" stroke-width="0.5"/>
  <text x="116" y="576" font-size="13" font-weight="600" fill="#1e293b">Cross-Platform</text>
  <text x="116" y="596" font-size="13" fill="#64748b">Cross-Platform</text>
  
  
  
  

  <!-- Column header -->
  <rect x="300" y="80" width="200" height="52" fill="#60a5fa"/>
  
  <text x="400" y="112" text-anchor="middle" font-size="16" font-weight="600" fill="#ffffff">YNAB</text>

  <!-- Rows -->
  
  
  <rect x="300" y="148" width="200" height="52" fill="#f8fafc" stroke="#e2e8f0" stroke-width="0.5"/>
  <text x="316" y="170" font-size="13" font-weight="600" fill="#1e293b">YNAB</text>
  <text x="316" y="190" font-size="13" fill="#64748b">$14.99/month or $109/year</text>
  
  
  <rect x="300" y="206" width="200" height="52" fill="#ffffff" stroke="#e2e8f0" stroke-width="0.5"/>
  <text x="316" y="228" font-size="13" font-weight="600" fill="#1e293b">Cloud servers (Plaid)</text>
  <text x="316" y="248" font-size="13" fill="#64748b">Cloud servers (Plaid)</text>
  
  
  <rect x="300" y="264" width="200" height="52" fill="#f8fafc" stroke="#e2e8f0" stroke-width="0.5"/>
  <text x="316" y="286" font-size="13" font-weight="600" fill="#1e293b">Automated via Plaid</text>
  <text x="316" y="306" font-size="13" fill="#64748b">Automated via Plaid</text>
  
  
  <rect x="300" y="322" width="200" height="52" fill="#ffffff" stroke="#e2e8f0" stroke-width="0.5"/>
  <text x="316" y="344" font-size="13" font-weight="600" fill="#1e293b">In transit &amp; at rest</text>
  <text x="316" y="364" font-size="13" fill="#64748b">In transit &amp; at rest</text>
  
  
  <rect x="300" y="380" width="200" height="52" fill="#f8fafc" stroke="#e2e8f0" stroke-width="0.5"/>
  <text x="316" y="402" font-size="13" font-weight="600" fill="#1e293b">Partial (needs sync)</text>
  <text x="316" y="422" font-size="13" fill="#64748b">Partial (needs sync)</text>
  
  
  <rect x="300" y="438" width="200" height="52" fill="#ffffff" stroke="#e2e8f0" stroke-width="0.5"/>
  <text x="316" y="460" font-size="13" font-weight="600" fill="#1e293b">Yes</text>
  <text x="316" y="480" font-size="13" fill="#64748b">Yes</text>
  
  
  <rect x="300" y="496" width="200" height="52" fill="#f8fafc" stroke="#e2e8f0" stroke-width="0.5"/>
  <text x="316" y="518" font-size="13" font-weight="600" fill="#1e293b">No</text>
  <text x="316" y="538" font-size="13" fill="#64748b">No</text>
  
  
  <rect x="300" y="554" width="200" height="52" fill="#ffffff" stroke="#e2e8f0" stroke-width="0.5"/>
  <text x="316" y="576" font-size="13" font-weight="600" fill="#1e293b">iOS</text>
  <text x="316" y="596" font-size="13" fill="#64748b">iOS</text>
  
  
  
  

  <!-- Column header -->
  <rect x="500" y="80" width="200" height="52" fill="#059669"/>
  
  <text x="600" y="112" text-anchor="middle" font-size="16" font-weight="600" fill="#ffffff">Goodbudget</text>

  <!-- Rows -->
  
  
  <rect x="500" y="148" width="200" height="52" fill="#f8fafc" stroke="#e2e8f0" stroke-width="0.5"/>
  <text x="516" y="170" font-size="13" font-weight="600" fill="#1e293b">Goodbudget</text>
  <text x="516" y="190" font-size="13" fill="#64748b">Free or $10/month</text>
  
  
  <rect x="500" y="206" width="200" height="52" fill="#ffffff" stroke="#e2e8f0" stroke-width="0.5"/>
  <text x="516" y="228" font-size="13" font-weight="600" fill="#1e293b">Cloud servers</text>
  <text x="516" y="248" font-size="13" fill="#64748b">Cloud servers</text>
  
  
  <rect x="500" y="264" width="200" height="52" fill="#f8fafc" stroke="#e2e8f0" stroke-width="0.5"/>
  <text x="516" y="286" font-size="13" font-weight="600" fill="#1e293b">Manual entry only</text>
  <text x="516" y="306" font-size="13" fill="#64748b">Manual entry only</text>
  
  
  <rect x="500" y="322" width="200" height="52" fill="#ffffff" stroke="#e2e8f0" stroke-width="0.5"/>
  <text x="516" y="344" font-size="13" font-weight="600" fill="#1e293b">In transit &amp; at rest</text>
  <text x="516" y="364" font-size="13" fill="#64748b">In transit &amp; at rest</text>
  
  
  <rect x="500" y="380" width="200" height="52" fill="#f8fafc" stroke="#e2e8f0" stroke-width="0.5"/>
  <text x="516" y="402" font-size="13" font-weight="600" fill="#1e293b">Partial (needs sync)</text>
  <text x="516" y="422" font-size="13" fill="#64748b">Partial (needs sync)</text>
  
  
  <rect x="500" y="438" width="200" height="52" fill="#ffffff" stroke="#e2e8f0" stroke-width="0.5"/>
  <text x="516" y="460" font-size="13" font-weight="600" fill="#1e293b">Yes</text>
  <text x="516" y="480" font-size="13" fill="#64748b">Yes</text>
  
  
  <rect x="500" y="496" width="200" height="52" fill="#f8fafc" stroke="#e2e8f0" stroke-width="0.5"/>
  <text x="516" y="518" font-size="13" font-weight="600" fill="#1e293b">No</text>
  <text x="516" y="538" font-size="13" fill="#64748b">No</text>
  
  
  <rect x="500" y="554" width="200" height="52" fill="#ffffff" stroke="#e2e8f0" stroke-width="0.5"/>
  <text x="516" y="576" font-size="13" font-weight="600" fill="#1e293b">iOS</text>
  <text x="516" y="596" font-size="13" fill="#64748b">iOS</text>
  
  
  
  

  <!-- Column header -->
  <rect x="700" y="80" width="200" height="52" fill="#60a5fa"/>
  
  <text x="800" y="112" text-anchor="middle" font-size="16" font-weight="600" fill="#ffffff">EveryDollar</text>

  <!-- Rows -->
  
  
  <rect x="700" y="148" width="200" height="52" fill="#f8fafc" stroke="#e2e8f0" stroke-width="0.5"/>
  <text x="716" y="170" font-size="13" font-weight="600" fill="#1e293b">EveryDollar</text>
  <text x="716" y="190" font-size="13" fill="#64748b">Free or $17.99/month</text>
  
  
  <rect x="700" y="206" width="200" height="52" fill="#ffffff" stroke="#e2e8f0" stroke-width="0.5"/>
  <text x="716" y="228" font-size="13" font-weight="600" fill="#1e293b">Cloud servers</text>
  <text x="716" y="248" font-size="13" fill="#64748b">Cloud servers</text>
  
  
  <rect x="700" y="264" width="200" height="52" fill="#f8fafc" stroke="#e2e8f0" stroke-width="0.5"/>
  <text x="716" y="286" font-size="13" font-weight="600" fill="#1e293b">Automated (Premium only)</text>
  <text x="716" y="306" font-size="13" fill="#64748b">Automated (Premium only)</text>
  
  
  <rect x="700" y="322" width="200" height="52" fill="#ffffff" stroke="#e2e8f0" stroke-width="0.5"/>
  <text x="716" y="344" font-size="13" font-weight="600" fill="#1e293b">In transit &amp; at rest</text>
  <text x="716" y="364" font-size="13" fill="#64748b">In transit &amp; at rest</text>
  
  
  <rect x="700" y="380" width="200" height="52" fill="#f8fafc" stroke="#e2e8f0" stroke-width="0.5"/>
  <text x="716" y="402" font-size="13" font-weight="600" fill="#1e293b">Partial (needs sync)</text>
  <text x="716" y="422" font-size="13" fill="#64748b">Partial (needs sync)</text>
  
  
  <rect x="700" y="438" width="200" height="52" fill="#ffffff" stroke="#e2e8f0" stroke-width="0.5"/>
  <text x="716" y="460" font-size="13" font-weight="600" fill="#1e293b">Yes (Zero-based)</text>
  <text x="716" y="480" font-size="13" fill="#64748b">Yes (Zero-based)</text>
  
  
  <rect x="700" y="496" width="200" height="52" fill="#f8fafc" stroke="#e2e8f0" stroke-width="0.5"/>
  <text x="716" y="518" font-size="13" font-weight="600" fill="#1e293b">No</text>
  <text x="716" y="538" font-size="13" fill="#64748b">No</text>
  
  
  <rect x="700" y="554" width="200" height="52" fill="#ffffff" stroke="#e2e8f0" stroke-width="0.5"/>
  <text x="716" y="576" font-size="13" font-weight="600" fill="#1e293b">iOS</text>
  <text x="716" y="596" font-size="13" fill="#64748b">iOS</text>
  
  
  
  

  <!-- Column header -->
  <rect x="900" y="80" width="200" height="52" fill="#059669"/>
  
  <text x="1000" y="112" text-anchor="middle" font-size="16" font-weight="600" fill="#ffffff">Zeroed</text>

  <!-- Rows -->
  
  
  <rect x="900" y="148" width="200" height="52" fill="#f8fafc" stroke="#e2e8f0" stroke-width="0.5"/>
  <text x="916" y="170" font-size="13" font-weight="600" fill="#1e293b">Zeroed</text>
  <text x="916" y="190" font-size="13" fill="#64748b">$39.99 one-time</text>
  
  
  <rect x="900" y="206" width="200" height="52" fill="#ffffff" stroke="#e2e8f0" stroke-width="0.5"/>
  <text x="916" y="228" font-size="13" font-weight="600" fill="#1e293b">Local device + your Google Drive</text>
  <text x="916" y="248" font-size="13" fill="#64748b">Local device + your Google Drive</text>
  
  
  <rect x="900" y="264" width="200" height="52" fill="#f8fafc" stroke="#e2e8f0" stroke-width="0.5"/>
  <text x="916" y="286" font-size="13" font-weight="600" fill="#1e293b">None (manual or CSV/PDF import)</text>
  <text x="916" y="306" font-size="13" fill="#64748b">None (manual or CSV/PDF import)</text>
  
  
  <rect x="900" y="322" width="200" height="52" fill="#ffffff" stroke="#e2e8f0" stroke-width="0.5"/>
  <text x="916" y="344" font-size="13" font-weight="600" fill="#1e293b">AES-256 on-device</text>
  <text x="916" y="364" font-size="13" fill="#64748b">AES-256 on-device</text>
  
  
  <rect x="900" y="380" width="200" height="52" fill="#f8fafc" stroke="#e2e8f0" stroke-width="0.5"/>
  <text x="916" y="402" font-size="13" font-weight="600" fill="#1e293b">Yes (fully functional)</text>
  <text x="916" y="422" font-size="13" fill="#64748b">Yes (fully functional)</text>
  
  
  <rect x="900" y="438" width="200" height="52" fill="#ffffff" stroke="#e2e8f0" stroke-width="0.5"/>
  <text x="916" y="460" font-size="13" font-weight="600" fill="#1e293b">Yes (hardcore envelope)</text>
  <text x="916" y="480" font-size="13" fill="#64748b">Yes (hardcore envelope)</text>
  
  
  <rect x="900" y="496" width="200" height="52" fill="#f8fafc" stroke="#e2e8f0" stroke-width="0.5"/>
  <text x="916" y="518" font-size="13" font-weight="600" fill="#1e293b">Yes (on-device OCR)</text>
  <text x="916" y="538" font-size="13" fill="#64748b">Yes (on-device OCR)</text>
  
  
  <rect x="900" y="554" width="200" height="52" fill="#ffffff" stroke="#e2e8f0" stroke-width="0.5"/>
  <text x="916" y="576" font-size="13" font-weight="600" fill="#1e293b">iOS</text>
  <text x="916" y="596" font-size="13" fill="#64748b">iOS</text>
  
  

  <!-- Bottom border -->
  <rect x="100" y="612" width="1000" height="3" fill="#059669"/>

  <!-- Source attribution -->
  <text x="1190" y="647" text-anchor="end" font-size="10" fill="#cbd5e1">stillwareltd.com</text>
</svg>