<svg xmlns="http://www.w3.org/2000/svg" viewBox="0 0 1200 675" width="1200" height="675">
  <style>
    text { font-family: Inter, system-ui, -apple-system, sans-serif; }
  </style>

  <rect width="1200" height="675" fill="#fffbeb"/>

  <!-- Background pattern (per-article variation) -->
  

  <!-- Subtle top accent bar -->
  <rect width="1200" height="4" fill="#2563eb"/>

  <!-- Title -->
  <text x="600" y="55" text-anchor="middle" font-size="28" font-weight="700" fill="#1e293b">5-Year Cost of a Kids&#39; Chess App</text>

  <!-- Chart area -->
  
  
  
  
  
  
  

  <!-- Y axis -->
  <line x1="240" y1="85" x2="240" y2="610" stroke="#e2e8f0" stroke-width="1"/>

  <!-- Gridlines -->
  
  
  <line x1="396" y1="85" x2="396" y2="610" stroke="#f1f5f9" stroke-width="1"/>
  
  
  <line x1="552" y1="85" x2="552" y2="610" stroke="#f1f5f9" stroke-width="1"/>
  
  
  <line x1="708" y1="85" x2="708" y2="610" stroke="#f1f5f9" stroke-width="1"/>
  
  
  <line x1="864" y1="85" x2="864" y2="610" stroke="#f1f5f9" stroke-width="1"/>
  
  
  <line x1="1020" y1="85" x2="1020" y2="610" stroke="#f1f5f9" stroke-width="1"/>
  

  
  
  
  

  <!-- Label -->
  <text x="226" y="221" text-anchor="end" font-size="14" font-weight="500" fill="#1e293b">Subscription App</text>

  <!-- Bar with rounded right end -->
  <rect x="245" y="93" width="780" height="246" rx="18" fill="#059669" opacity="0.85"/>
  <rect x="245" y="93" width="780" height="246" rx="18" fill="#059669" opacity="0.12"/>

  <!-- Value label -->
  <text x="1036" y="221" font-size="14" font-weight="700" fill="#059669">$600</text>
  
  
  
  

  <!-- Label -->
  <text x="226" y="483" text-anchor="end" font-size="14" font-weight="500" fill="#1e293b">Offline One-Time Purchase</text>

  <!-- Bar with rounded right end -->
  <rect x="245" y="355" width="51" height="246" rx="18" fill="#dc2626" opacity="0.85"/>
  <rect x="245" y="355" width="51" height="246" rx="18" fill="#dc2626" opacity="0.12"/>

  <!-- Value label -->
  <text x="307" y="483" font-size="14" font-weight="700" fill="#dc2626">$39.99</text>
  

  <!-- Source attribution -->
  <text x="1190" y="665" text-anchor="end" font-size="10" fill="#cbd5e1">stillwareltd.com</text>
</svg>