<svg xmlns="http://www.w3.org/2000/svg" viewBox="0 0 1200 675" width="1200" height="675">
  <style>
    text { font-family: Inter, system-ui, -apple-system, sans-serif; }
  </style>

  <rect width="1200" height="675" fill="#ffffff"/>

  <!-- Title -->
  <text x="600" y="50" text-anchor="middle" font-size="28" font-weight="700" fill="#1e293b">5-Year Total Cost of Ownership Comparison</text>

  <!-- Chart area -->
  
  
  
  
  
  
  

  <!-- Y axis -->
  <line x1="220" y1="90" x2="220" y2="620" stroke="#e2e8f0" stroke-width="1"/>

  <!-- Gridlines -->
  
  
  <line x1="380" y1="90" x2="380" y2="620" stroke="#f1f5f9" stroke-width="1"/>
  
  
  <line x1="540" y1="90" x2="540" y2="620" stroke="#f1f5f9" stroke-width="1"/>
  
  
  <line x1="700" y1="90" x2="700" y2="620" stroke="#f1f5f9" stroke-width="1"/>
  
  
  <line x1="860" y1="90" x2="860" y2="620" stroke="#f1f5f9" stroke-width="1"/>
  
  
  <line x1="1020" y1="90" x2="1020" y2="620" stroke="#f1f5f9" stroke-width="1"/>
  

  
  
  

  <!-- Label -->
  <text x="208" y="149" text-anchor="end" font-size="14" font-weight="500" fill="#1e293b">YNAB (Subscription)</text>

  <!-- Bar with rounded right end -->
  <rect x="225" y="100" width="800" height="88" rx="6" fill="#ef4444" opacity="0.85"/>
  <rect x="225" y="100" width="800" height="88" rx="6" fill="#ef4444" opacity="0.15"/>

  <!-- Value -->
  <text x="1036" y="149" font-size="14" font-weight="600" fill="#64748b">600</text>
  
  
  

  <!-- Label -->
  <text x="208" y="255" text-anchor="end" font-size="14" font-weight="500" fill="#1e293b">Actual Cloud (Sub)</text>

  <!-- Bar with rounded right end -->
  <rect x="225" y="206" width="600" height="88" rx="6" fill="#f97316" opacity="0.85"/>
  <rect x="225" y="206" width="600" height="88" rx="6" fill="#f97316" opacity="0.15"/>

  <!-- Value -->
  <text x="836" y="255" font-size="14" font-weight="600" fill="#64748b">450</text>
  
  
  

  <!-- Label -->
  <text x="208" y="361" text-anchor="end" font-size="14" font-weight="500" fill="#1e293b">Banktivity + Data</text>

  <!-- Bar with rounded right end -->
  <rect x="225" y="312" width="200" height="88" rx="6" fill="#eab308" opacity="0.85"/>
  <rect x="225" y="312" width="200" height="88" rx="6" fill="#eab308" opacity="0.15"/>

  <!-- Value -->
  <text x="436" y="361" font-size="14" font-weight="600" fill="#64748b">150</text>
  
  
  

  <!-- Label -->
  <text x="208" y="467" text-anchor="end" font-size="14" font-weight="500" fill="#1e293b">Zeroed (One-Time)</text>

  <!-- Bar with rounded right end -->
  <rect x="225" y="418" width="53" height="88" rx="6" fill="#2563eb" opacity="0.85"/>
  <rect x="225" y="418" width="53" height="88" rx="6" fill="#2563eb" opacity="0.15"/>

  <!-- Value -->
  <text x="289" y="467" font-size="14" font-weight="600" fill="#64748b">39.99</text>
  
  
  

  <!-- Label -->
  <text x="208" y="573" text-anchor="end" font-size="14" font-weight="500" fill="#1e293b">Buckets (One-Time)</text>

  <!-- Bar with rounded right end -->
  <rect x="225" y="524" width="66" height="88" rx="6" fill="#22c55e" opacity="0.85"/>
  <rect x="225" y="524" width="66" height="88" rx="6" fill="#22c55e" opacity="0.15"/>

  <!-- Value -->
  <text x="302" y="573" font-size="14" font-weight="600" fill="#64748b">49.99</text>
  
</svg>