<svg xmlns="http://www.w3.org/2000/svg" viewBox="0 0 1200 675" width="1200" height="675">
  <style>
    text { font-family: Inter, system-ui, -apple-system, sans-serif; }
  </style>

  <rect width="1200" height="675" fill="#ffffff"/>

  <!-- Title -->
  <text x="600" y="50" text-anchor="middle" font-size="28" font-weight="700" fill="#1e293b">Core Data Architecture Comparison of Privacy-First Budgeting Apps</text>

  <!-- Table -->
  
  
  

  
  

  <!-- Column header -->
  <rect x="100" y="80" width="250" height="48" fill="#2563eb" rx="10 0 0 0"/>
  <text x="225" y="110" text-anchor="middle" font-size="17" font-weight="600" fill="#ffffff">Zeroed</text>

  <!-- Rows -->
  
  
  <rect x="100" y="138" width="250" height="56" fill="#f0f5ff" stroke="#e2e8f0" stroke-width="1"/>
  <text x="116" y="162" font-size="14" font-weight="600" fill="#1e293b">Data Location</text>
  <text x="116" y="182" font-size="14" fill="#64748b">User Device & Google Drive</text>
  
  
  <rect x="100" y="200" width="250" height="56" fill="#ffffff" stroke="#e2e8f0" stroke-width="1"/>
  <text x="116" y="224" font-size="14" font-weight="600" fill="#1e293b">Encryption Keys</text>
  <text x="116" y="244" font-size="14" fill="#64748b">User-Held</text>
  
  
  <rect x="100" y="262" width="250" height="56" fill="#f0f5ff" stroke="#e2e8f0" stroke-width="1"/>
  <text x="116" y="286" font-size="14" font-weight="600" fill="#1e293b">Bank Sync</text>
  <text x="116" y="306" font-size="14" fill="#64748b">Optional CSV/PDF</text>
  
  
  <rect x="100" y="324" width="250" height="56" fill="#ffffff" stroke="#e2e8f0" stroke-width="1"/>
  <text x="116" y="348" font-size="14" font-weight="600" fill="#1e293b">Business Model</text>
  <text x="116" y="368" font-size="14" fill="#64748b">One-Time Purchase</text>
  
  
  

  <!-- Column header -->
  <rect x="350" y="80" width="250" height="48" fill="#2563eb" rx="0"/>
  <text x="475" y="110" text-anchor="middle" font-size="17" font-weight="600" fill="#ffffff">Actual</text>

  <!-- Rows -->
  
  
  <rect x="350" y="138" width="250" height="56" fill="#f0f5ff" stroke="#e2e8f0" stroke-width="1"/>
  <text x="366" y="162" font-size="14" font-weight="600" fill="#1e293b">Data Location</text>
  <text x="366" y="182" font-size="14" fill="#64748b">Encrypted Cloud (Actual Servers)</text>
  
  
  <rect x="350" y="200" width="250" height="56" fill="#ffffff" stroke="#e2e8f0" stroke-width="1"/>
  <text x="366" y="224" font-size="14" font-weight="600" fill="#1e293b">Encryption Keys</text>
  <text x="366" y="244" font-size="14" fill="#64748b">User-Held</text>
  
  
  <rect x="350" y="262" width="250" height="56" fill="#f0f5ff" stroke="#e2e8f0" stroke-width="1"/>
  <text x="366" y="286" font-size="14" font-weight="600" fill="#1e293b">Bank Sync</text>
  <text x="366" y="306" font-size="14" fill="#64748b">Optional (Plaid on cloud)</text>
  
  
  <rect x="350" y="324" width="250" height="56" fill="#ffffff" stroke="#e2e8f0" stroke-width="1"/>
  <text x="366" y="348" font-size="14" font-weight="600" fill="#1e293b">Business Model</text>
  <text x="366" y="368" font-size="14" fill="#64748b">Subscription / Donation</text>
  
  
  

  <!-- Column header -->
  <rect x="600" y="80" width="250" height="48" fill="#2563eb" rx="0"/>
  <text x="725" y="110" text-anchor="middle" font-size="17" font-weight="600" fill="#ffffff">Buckets</text>

  <!-- Rows -->
  
  
  <rect x="600" y="138" width="250" height="56" fill="#f0f5ff" stroke="#e2e8f0" stroke-width="1"/>
  <text x="616" y="162" font-size="14" font-weight="600" fill="#1e293b">Data Location</text>
  <text x="616" y="182" font-size="14" fill="#64748b">User Device Only</text>
  
  
  <rect x="600" y="200" width="250" height="56" fill="#ffffff" stroke="#e2e8f0" stroke-width="1"/>
  <text x="616" y="224" font-size="14" font-weight="600" fill="#1e293b">Encryption Keys</text>
  <text x="616" y="244" font-size="14" fill="#64748b">User-Held</text>
  
  
  <rect x="600" y="262" width="250" height="56" fill="#f0f5ff" stroke="#e2e8f0" stroke-width="1"/>
  <text x="616" y="286" font-size="14" font-weight="600" fill="#1e293b">Bank Sync</text>
  <text x="616" y="306" font-size="14" fill="#64748b">None</text>
  
  
  <rect x="600" y="324" width="250" height="56" fill="#ffffff" stroke="#e2e8f0" stroke-width="1"/>
  <text x="616" y="348" font-size="14" font-weight="600" fill="#1e293b">Business Model</text>
  <text x="616" y="368" font-size="14" fill="#64748b">One-Time Purchase</text>
  
  
  

  <!-- Column header -->
  <rect x="850" y="80" width="250" height="48" fill="#2563eb" rx="0 10 0 0"/>
  <text x="975" y="110" text-anchor="middle" font-size="17" font-weight="600" fill="#ffffff">Banktivity</text>

  <!-- Rows -->
  
  
  <rect x="850" y="138" width="250" height="56" fill="#f0f5ff" stroke="#e2e8f0" stroke-width="1"/>
  <text x="866" y="162" font-size="14" font-weight="600" fill="#1e293b">Data Location</text>
  <text x="866" y="182" font-size="14" fill="#64748b">User Device (iCloud Opt.)</text>
  
  
  <rect x="850" y="200" width="250" height="56" fill="#ffffff" stroke="#e2e8f0" stroke-width="1"/>
  <text x="866" y="224" font-size="14" font-weight="600" fill="#1e293b">Encryption Keys</text>
  <text x="866" y="244" font-size="14" fill="#64748b">User-Held (Local)</text>
  
  
  <rect x="850" y="262" width="250" height="56" fill="#f0f5ff" stroke="#e2e8f0" stroke-width="1"/>
  <text x="866" y="286" font-size="14" font-weight="600" fill="#1e293b">Bank Sync</text>
  <text x="866" y="306" font-size="14" fill="#64748b">Optional Direct Connect</text>
  
  
  <rect x="850" y="324" width="250" height="56" fill="#ffffff" stroke="#e2e8f0" stroke-width="1"/>
  <text x="866" y="348" font-size="14" font-weight="600" fill="#1e293b">Business Model</text>
  <text x="866" y="368" font-size="14" fill="#64748b">One-Time + Data Sub</text>
  
  

  <!-- Bottom border -->
  
  <rect x="100" y="380" width="1000" height="3" fill="#2563eb" rx="0 0 10 10"/>
</svg>